<mxfile host="Electron" modified="2023-07-16T03:46:59.187Z" agent="Mozilla/5.0 (X11; Linux x86_64) AppleWebKit/537.36 (KHTML, like Gecko) draw.io/21.6.1 Chrome/112.0.5615.204 Electron/24.6.1 Safari/537.36" etag="xax25ByatWOLMnKGk59b" version="21.6.1" type="device">
  <diagram name="第 1 页" id="AGqUtcyxwc0lDEJIqzPw">
    <mxGraphModel dx="1532" dy="1138" grid="1" gridSize="10" guides="1" tooltips="1" connect="1" arrows="1" fold="1" page="0" pageScale="1" pageWidth="827" pageHeight="1169" math="0" shadow="0">
      <root>
        <mxCell id="0" />
        <mxCell id="1" parent="0" />
        <mxCell id="3aG02LwlgI3OmeQ63kkp-1" value="" style="endArrow=baseDash;html=1;rounded=0;fontSize=12;startSize=8;endSize=8;curved=1;startArrow=baseDash;startFill=0;endFill=0;" edge="1" parent="1">
          <mxGeometry width="50" height="50" relative="1" as="geometry">
            <mxPoint x="20" y="64.5" as="sourcePoint" />
            <mxPoint x="150" y="64.5" as="targetPoint" />
          </mxGeometry>
        </mxCell>
        <mxCell id="3aG02LwlgI3OmeQ63kkp-2" value="2" style="text;html=1;align=center;verticalAlign=middle;resizable=0;points=[];autosize=1;strokeColor=none;fillColor=none;fontSize=16;" vertex="1" parent="1">
          <mxGeometry x="10" y="-2" width="30" height="30" as="geometry" />
        </mxCell>
        <mxCell id="3aG02LwlgI3OmeQ63kkp-3" value="5" style="text;html=1;align=center;verticalAlign=middle;resizable=0;points=[];autosize=1;strokeColor=none;fillColor=none;fontSize=16;" vertex="1" parent="1">
          <mxGeometry x="130" y="-2" width="30" height="30" as="geometry" />
        </mxCell>
        <mxCell id="3aG02LwlgI3OmeQ63kkp-4" value="8" style="text;html=1;align=center;verticalAlign=middle;resizable=0;points=[];autosize=1;strokeColor=none;fillColor=none;fontSize=16;" vertex="1" parent="1">
          <mxGeometry x="250" y="-2" width="30" height="30" as="geometry" />
        </mxCell>
        <mxCell id="3aG02LwlgI3OmeQ63kkp-5" value="11" style="text;html=1;align=center;verticalAlign=middle;resizable=0;points=[];autosize=1;strokeColor=none;fillColor=none;fontSize=16;" vertex="1" parent="1">
          <mxGeometry x="360" y="-2" width="40" height="30" as="geometry" />
        </mxCell>
        <mxCell id="3aG02LwlgI3OmeQ63kkp-6" value="14" style="text;html=1;align=center;verticalAlign=middle;resizable=0;points=[];autosize=1;strokeColor=none;fillColor=none;fontSize=16;" vertex="1" parent="1">
          <mxGeometry x="480" y="-2" width="40" height="30" as="geometry" />
        </mxCell>
        <mxCell id="3aG02LwlgI3OmeQ63kkp-7" value="18" style="text;html=1;align=center;verticalAlign=middle;resizable=0;points=[];autosize=1;strokeColor=none;fillColor=none;fontSize=16;" vertex="1" parent="1">
          <mxGeometry x="590" y="-2" width="40" height="30" as="geometry" />
        </mxCell>
        <mxCell id="3aG02LwlgI3OmeQ63kkp-8" value="变（ALCL）" style="text;html=1;align=center;verticalAlign=middle;resizable=0;points=[];autosize=1;strokeColor=none;fillColor=none;fontSize=16;" vertex="1" parent="1">
          <mxGeometry x="-75" y="50" width="110" height="30" as="geometry" />
        </mxCell>
        <mxCell id="3aG02LwlgI3OmeQ63kkp-9" value="" style="endArrow=baseDash;html=1;rounded=0;fontSize=12;startSize=8;endSize=8;curved=1;startArrow=baseDash;startFill=0;endFill=0;" edge="1" parent="1">
          <mxGeometry width="50" height="50" relative="1" as="geometry">
            <mxPoint x="260" y="64.5" as="sourcePoint" />
            <mxPoint x="500" y="64.5" as="targetPoint" />
          </mxGeometry>
        </mxCell>
        <mxCell id="3aG02LwlgI3OmeQ63kkp-10" value="避（BL）" style="text;html=1;align=center;verticalAlign=middle;resizable=0;points=[];autosize=1;strokeColor=none;fillColor=none;fontSize=16;" vertex="1" parent="1">
          <mxGeometry x="180" y="50" width="90" height="30" as="geometry" />
        </mxCell>
        <mxCell id="3aG02LwlgI3OmeQ63kkp-11" value="" style="endArrow=baseDash;html=1;rounded=0;fontSize=12;startSize=8;endSize=8;curved=1;startArrow=baseDash;startFill=0;endFill=0;" edge="1" parent="1">
          <mxGeometry width="50" height="50" relative="1" as="geometry">
            <mxPoint x="380" y="110" as="sourcePoint" />
            <mxPoint x="500" y="110" as="targetPoint" />
            <Array as="points">
              <mxPoint x="420" y="110" />
              <mxPoint x="440" y="80" />
              <mxPoint x="460" y="110" />
            </Array>
          </mxGeometry>
        </mxCell>
        <mxCell id="3aG02LwlgI3OmeQ63kkp-12" value="套（MCL）" style="text;html=1;align=center;verticalAlign=middle;resizable=0;points=[];autosize=1;strokeColor=none;fillColor=none;fontSize=16;" vertex="1" parent="1">
          <mxGeometry x="280" y="100" width="110" height="30" as="geometry" />
        </mxCell>
        <mxCell id="3aG02LwlgI3OmeQ63kkp-13" value="" style="endArrow=baseDash;html=1;rounded=0;fontSize=12;startSize=8;endSize=8;curved=1;startArrow=baseDash;startFill=0;endFill=0;" edge="1" parent="1">
          <mxGeometry width="50" height="50" relative="1" as="geometry">
            <mxPoint x="385" y="154.5" as="sourcePoint" />
            <mxPoint x="625" y="154.5" as="targetPoint" />
          </mxGeometry>
        </mxCell>
        <mxCell id="3aG02LwlgI3OmeQ63kkp-14" value="边（MZL）" style="text;html=1;align=center;verticalAlign=middle;resizable=0;points=[];autosize=1;strokeColor=none;fillColor=none;fontSize=16;" vertex="1" parent="1">
          <mxGeometry x="290" y="140" width="100" height="30" as="geometry" />
        </mxCell>
        <mxCell id="3aG02LwlgI3OmeQ63kkp-15" value="" style="endArrow=baseDash;html=1;rounded=0;fontSize=12;startSize=8;endSize=8;curved=1;startArrow=baseDash;startFill=0;endFill=0;" edge="1" parent="1">
          <mxGeometry width="50" height="50" relative="1" as="geometry">
            <mxPoint x="510" y="200" as="sourcePoint" />
            <mxPoint x="630" y="200" as="targetPoint" />
            <Array as="points">
              <mxPoint x="550" y="200" />
              <mxPoint x="570" y="170" />
              <mxPoint x="590" y="200" />
            </Array>
          </mxGeometry>
        </mxCell>
        <mxCell id="3aG02LwlgI3OmeQ63kkp-16" value="泡（FL）" style="text;html=1;align=center;verticalAlign=middle;resizable=0;points=[];autosize=1;strokeColor=none;fillColor=none;fontSize=16;" vertex="1" parent="1">
          <mxGeometry x="430" y="188" width="90" height="30" as="geometry" />
        </mxCell>
        <mxCell id="3aG02LwlgI3OmeQ63kkp-17" value="“抓住避孕套的边边吹个泡泡”" style="text;html=1;align=center;verticalAlign=middle;resizable=0;points=[];autosize=1;fontSize=18;strokeColor=#d6b656;dashed=1;fillColor=#fff2cc;" vertex="1" parent="1">
          <mxGeometry x="320" y="-60" width="250" height="40" as="geometry" />
        </mxCell>
        <mxCell id="3aG02LwlgI3OmeQ63kkp-19" value="变态发育中的虫子还比较短" style="text;html=1;align=center;verticalAlign=middle;resizable=0;points=[];autosize=1;fontSize=18;dashed=1;strokeColor=#d6b656;fillColor=#fff2cc;" vertex="1" parent="1">
          <mxGeometry x="-40" y="-60" width="240" height="40" as="geometry" />
        </mxCell>
      </root>
    </mxGraphModel>
  </diagram>
</mxfile>
